<?xml version="1.0" encoding="UTF-8"?>
<svg  id="_Слой_2" data-name="Слой 2" xmlns="http://www.w3.org/2000/svg" viewBox="0 0 626.19 173.01">
  <defs>
    <style>
      .cls-1 {
        fill: #fff;
        stroke-width: 0px;
      }

      .cls-2 {
        fill: #d80412;
        font-family: OldFashionScript, 'Old Fashion Script';
        font-size: 67.77px;
      }
    </style>
  </defs>
  <g id="_Слой_2-2" data-name="Слой 2">
    <g>
      <path class="cls-1" d="M0,108.55v-20.98c2.22,0,4.17,0,6.12,0,39.96-.05,79.91-.07,119.87-.24,3.24-.01,6.61-.78,9.68-1.87,4.18-1.47,6.25-4.95,6.19-9.33-.06-4.18-2.15-7.61-6.15-8.82-3.9-1.19-8.1-1.92-12.18-1.95-38.95-.25-77.9-.31-116.86-.42-2.11,0-4.22,0-6.63,0v-20.97h6.12c27.97,0,55.94.03,83.91-.02,12.15-.02,24.3-.15,36.45-.37,2.46-.04,5-.39,7.34-1.1,4.98-1.51,8.2-5.82,8.05-10.21-.16-4.53-3.36-8.84-8.54-9.76-5.35-.96-10.9-1.1-16.36-1.12-36.79-.09-73.59-.05-110.38-.05H.21V.32C1.84.23,3.6.05,5.35.05c33.63-.02,67.26-.13,100.89.06,10.62.06,21.4-.03,31.82,1.67,18.9,3.08,30.41,19.12,26.77,36.61-1.18,5.64-4.61,10.81-6.96,16.07,2.22,4.97,5.72,10.27,6.96,16.05,3.45,16.1-6.15,31.52-22.92,35.56-9.71,2.34-20.08,2.59-30.16,2.68-35.79.3-71.59.12-107.39.1-1.3,0-2.6-.18-4.36-.31Z"/>
      <path class="cls-1" d="M398.19,108.57v-21.01c2.07,0,3.84,0,5.6,0,31.12-.11,62.24-.13,93.35-.41,5.61-.05,11.33-.62,16.81-1.82,16.04-3.5,26.81-16.35,26.63-31.11-.19-14.82-11.01-28.04-27.19-30.56-12.57-1.96-25.49-2.06-38.26-2.23-23.79-.32-47.6-.09-71.4-.09h-5.6V.38c1.35-.13,2.47-.33,3.59-.33,34.11.2,68.22.16,102.32.75,19.18.33,36.47,6.17,48.93,21.76,23.07,28.86,9.49,70.16-26.69,81.89-12.58,4.08-25.57,3.94-38.53,4.04-28.62.21-57.24.26-85.86.36-1.14,0-2.29-.17-3.71-.28Z"/>
      <path class="cls-1" d="M273.25,47.3c1.85,0,3.48,0,5.11,0,17.96-.11,35.92-.21,53.88-.35,1.99-.02,3.99-.16,5.97-.38,6.41-.73,9.43-3.14,10.02-9.66.68-7.42.41-14.93.5-22.4.06-4.62.01-9.23.01-14.15h24.25c0,11.77.11,23.36-.05,34.94-.07,5.13-.36,10.3-1.11,15.37-1.28,8.58-6.13,14.67-14.9,15.8-9.85,1.27-19.84,1.56-29.79,1.9-8.45.29-16.91.06-25.86.06v39.99h-28.04v-61.12Z"/>
      <path class="cls-1" d="M191.03.29h23.83c0,4.96,0,9.72,0,14.49.01,6.16-.1,12.32.09,18.47.31,9.94,3.25,13.12,13.22,13.58,9.47.44,18.97.34,28.45.47,1.78.02,3.56,0,5.6,0v20.48c-.47.2-.91.56-1.35.56-16.3-.23-32.63-.04-48.9-.88-13.77-.71-20.34-7.51-20.82-21.24-.52-15.09-.12-30.21-.12-45.92Z"/>
    </g>
    <text class="cls-2" transform="translate(454.44 153.49) rotate(-26.35)"><tspan x="0" y="0">Chigatoy</tspan></text>
  </g>
</svg>